<svg xmlns="http://www.w3.org/2000/svg" width="1024" height="1024" viewBox="0 0 1024 1024" fill="none">
  <defs>
    <linearGradient id="bg" x1="128" y1="64" x2="896" y2="960" gradientUnits="userSpaceOnUse">
      <stop stop-color="#0f4a2c"/>
      <stop offset="0.55" stop-color="#1a7a4a"/>
      <stop offset="1" stop-color="#2db970"/>
    </linearGradient>
  </defs>
  <rect width="1024" height="1024" rx="220" fill="url(#bg)"/>
  <rect x="212" y="212" width="600" height="600" rx="148" fill="rgba(255,255,255,0.14)" stroke="rgba(255,255,255,0.32)" stroke-width="8"/>
  <path d="M512 300c-92 48-148 72-196 84v148c0 108 84 196 196 228 112-32 196-120 196-228V384c-48-12-104-36-196-84z" fill="#ffffff" fill-opacity="0.95"/>
  <path d="M512 356l120 62v98c0 72-52 132-120 154-68-22-120-82-120-154v-98l120-62z" fill="#7fffc4" fill-opacity="0.35"/>
  <circle cx="512" cy="500" r="36" fill="#7fffc4"/>
  <rect x="488" y="536" width="48" height="56" rx="10" fill="#0f4a2c"/>
</svg>
